# xmcd
#
# Track frame offsets: 
#        150
#        20535
#        41320
#        61830
#        82197
#        104460
#        126885
#        149015
#        169530
#
# Disc length: 2546 seconds
#
# Revision: 1
# Processed by: cddbd v1.5.2PL0 Copyright (c) Steve Scherf et al.
# Submitted via: ExactAudioCopyFreeDBPlugin 1.0
#
DISCID=7709f009
DTITLE=杉山清貴&オメガトライブ - FIRST FINALE
DYEAR=1900
DGENRE=Japanese Pop
TTITLE0=ガラスのPALM TREE
TTITLE1=夕凪通信
TTITLE2=NOVEMBER BLUE
TTITLE3=REMEMBER THE BRIGHTNESS
TTITLE4=霧のDOWN TOWN
TTITLE5=PLATONIC DANCER
TTITLE6=二度目のイヴ
TTITLE7=君はIN THE RAIN
TTITLE8=FIRST FINALE
EXTD=
EXTT0=
EXTT1=
EXTT2=
EXTT3=
EXTT4=
EXTT5=
EXTT6=
EXTT7=
EXTT8=
PLAYORDER=
